<svg width="24" height="28" viewBox="0 0 24 28" fill="none" xmlns="http://www.w3.org/2000/svg">
<path fill-rule="evenodd" clip-rule="evenodd" d="M23.3333 28H20.6302C20.3173 28 20.0733 27.9186 19.8981 27.7558C19.7229 27.5929 19.604 27.3813 19.5414 27.1207L18.0772 20.2819H7.1145L4.03593 27.1207C3.9233 27.3552 3.75123 27.5604 3.51971 27.7362C3.28819 27.9121 3.02851 28 2.74068 28H0L13.1966 0H16.7444L23.3333 28ZM8.29731 17.624H17.5143L15.0364 6.03709C14.9613 5.6984 14.8799 5.31413 14.7923 4.88426C14.7047 4.45439 14.6297 3.99196 14.5671 3.49696C14.3919 3.99196 14.2136 4.45765 14.0321 4.89403C13.8506 5.33041 13.6786 5.71794 13.5159 6.05663L8.29731 17.624Z" fill="black"/>
</svg>
